{"title":"Doraemon in Nobitas Great Adventure in South Seas SDTVRip by Har","uid":6611962,"size":992095762,"categoryP":"video","categoryS":"movies","magnet":"?xt=urn:btih:bdfce9594b42406075ea6a5f108d7382ae382cec&amp;dn=Doraemon+in+Nobitas+Great+Adventure+in+South+Seas+SDTVRip+by+Har&amp;tr=udp%3A%2F%2Ftracker.openbittorrent.com%3A80&amp;tr=udp%3A%2F%2Fopen.demonii.com%3A1337&amp;tr=udp%3A%2F%2Ftracker.coppersurfer.tk%3A6969&amp;tr=udp%3A%2F%2Fexodus.desync.com%3A6969","seeders":0,"leechers":1,"uploader":"harrylala","files":1,"time":1313633188,"description":"Title : Doraemon in Nobita's Great Adventure in south seas.avi\n\nDescription : \n\n\nGeneral\nComplete name                    : Doraemon in Nobitas Great Adventure in South                Seas SDTVRip by HarryLala.avi\nFormat                           : AVI\nFormat/Info                      : Audio Video Interleave\nFile size                        : 946 MiB\nDuration                         : 1h 27mn\nOverall bit rate                 : 1 512 Kbps\nWriting application              : MEncoder SVN-r30881(20100311-gcc4.3.3)\nWriting library                  : MPlayer\n\nVideo\nID                               : 0\nFormat                           : MPEG-4 Visual\nFormat profile                   : Advanced Simple@L5\nFormat settings, BVOP            : 2\nFormat settings, QPel            : No\nFormat settings, GMC             : No warppoints\nFormat settings, Matrix          : Default (H.263)\nCodec ID                         : XVID\nCodec ID/Hint                    : XviD\nDuration                         : 1h 27mn\nBit rate                         : 1 372 Kbps\nWidth                            : 720 pixels\nHeight                           : 480 pixels\nDisplay aspect ratio             : 3:2\nFrame rate                       : 25.000 fps\nStandard                         : NTSC\nColor space                      : YUV\nChroma subsampling               : 4:2:0\nBit depth                        : 8 bits\nScan type                        : Progressive\nCompression mode                 : Lossy\nBits/(Pixel*Frame)               : 0.159\nStream size                      : 858 MiB (91%)\nWriting library                  : XviD 1.2.1 (UTC 2008-12-04)\n\nAudio\nID                               : 1\nFormat                           : MPEG Audio\nFormat version                   : Version 1\nFormat profile                   : Layer 3\nMode                             : Joint stereo\nMode extension                   : MS Stereo\nCodec ID                         : 55\nCodec ID/Hint                    : MP3\nDuration                         : 1h 27mn\nBit rate mode                    : Constant\nBit rate                         : 128 Kbps\nChannel(s)                       : 2 channels\nSampling rate                    : 44.1 KHz\nCompression mode                 : Lossy\nDelay relative to video          : 120ms\nStream size                      : 80.1 MiB (8%)\nAlignment                        : Aligned on interleaves\nInterleave, duration             : 26 ms (0.65 video frame)\nInterleave, preload duration     : 522 ms\nWriting library                  : LAME3.98\n","torrent":{"xt":"urn:btih:bdfce9594b42406075ea6a5f108d7382ae382cec","amp;dn":"Doraemon+in+Nobitas+Great+Adventure+in+South+Seas+SDTVRip+by+Har","amp;tr":["udp%3A%2F%2Ftracker.openbittorrent.com%3A80","udp%3A%2F%2Fopen.demonii.com%3A1337","udp%3A%2F%2Ftracker.coppersurfer.tk%3A6969","udp%3A%2F%2Fexodus.desync.com%3A6969"],"infoHash":"bdfce9594b42406075ea6a5f108d7382ae382cec","infoHashBuffer":{"type":"Buffer","data":[189,252,233,89,75,66,64,96,117,234,106,95,16,141,115,130,174,56,44,236]},"announce":[],"urlList":[]}}